<mxfile host="app.diagrams.net" agent="Mozilla/5.0 (Macintosh; Intel Mac OS X 10_15_7) AppleWebKit/537.36 (KHTML, like Gecko) Chrome/126.0.0.0 Safari/537.36" version="24.7.5">
  <diagram name="第 1 页" id="_YMLRPegQy77FfAX24D1">
    <mxGraphModel dx="1841" dy="960" grid="1" gridSize="10" guides="1" tooltips="1" connect="1" arrows="1" fold="1" page="1" pageScale="1" pageWidth="827" pageHeight="1169" math="0" shadow="0">
      <root>
        <mxCell id="0" />
        <mxCell id="1" parent="0" />
        <mxCell id="lLFjMxr_NGgFAXdThUjX-1" value="zookeeper" style="rounded=0;whiteSpace=wrap;html=1;" vertex="1" parent="1">
          <mxGeometry x="70" y="140" width="120" height="60" as="geometry" />
        </mxCell>
        <mxCell id="lLFjMxr_NGgFAXdThUjX-4" style="edgeStyle=orthogonalEdgeStyle;rounded=0;orthogonalLoop=1;jettySize=auto;html=1;exitX=0;exitY=0.5;exitDx=0;exitDy=0;entryX=1;entryY=0.5;entryDx=0;entryDy=0;" edge="1" parent="1" source="lLFjMxr_NGgFAXdThUjX-2" target="lLFjMxr_NGgFAXdThUjX-1">
          <mxGeometry relative="1" as="geometry" />
        </mxCell>
        <mxCell id="lLFjMxr_NGgFAXdThUjX-5" style="edgeStyle=orthogonalEdgeStyle;rounded=0;orthogonalLoop=1;jettySize=auto;html=1;exitX=1;exitY=0.5;exitDx=0;exitDy=0;entryX=0;entryY=0.5;entryDx=0;entryDy=0;" edge="1" parent="1" source="lLFjMxr_NGgFAXdThUjX-2" target="lLFjMxr_NGgFAXdThUjX-3">
          <mxGeometry relative="1" as="geometry" />
        </mxCell>
        <mxCell id="lLFjMxr_NGgFAXdThUjX-9" value="数据一致性&lt;div&gt;原子性&lt;/div&gt;" style="edgeLabel;html=1;align=center;verticalAlign=middle;resizable=0;points=[];" vertex="1" connectable="0" parent="lLFjMxr_NGgFAXdThUjX-5">
          <mxGeometry x="-0.1726" relative="1" as="geometry">
            <mxPoint as="offset" />
          </mxGeometry>
        </mxCell>
        <mxCell id="lLFjMxr_NGgFAXdThUjX-2" value="zookeeper" style="rounded=0;whiteSpace=wrap;html=1;" vertex="1" parent="1">
          <mxGeometry x="360" y="140" width="120" height="60" as="geometry" />
        </mxCell>
        <mxCell id="lLFjMxr_NGgFAXdThUjX-11" style="edgeStyle=orthogonalEdgeStyle;rounded=0;orthogonalLoop=1;jettySize=auto;html=1;entryX=0.5;entryY=0;entryDx=0;entryDy=0;" edge="1" parent="1" source="lLFjMxr_NGgFAXdThUjX-3" target="lLFjMxr_NGgFAXdThUjX-10">
          <mxGeometry relative="1" as="geometry" />
        </mxCell>
        <mxCell id="lLFjMxr_NGgFAXdThUjX-12" value="数据一致性&lt;br&gt;实时性" style="edgeLabel;html=1;align=center;verticalAlign=middle;resizable=0;points=[];" vertex="1" connectable="0" parent="lLFjMxr_NGgFAXdThUjX-11">
          <mxGeometry x="-0.1966" relative="1" as="geometry">
            <mxPoint as="offset" />
          </mxGeometry>
        </mxCell>
        <mxCell id="lLFjMxr_NGgFAXdThUjX-3" value="zookeeper" style="rounded=0;whiteSpace=wrap;html=1;" vertex="1" parent="1">
          <mxGeometry x="620" y="140" width="120" height="60" as="geometry" />
        </mxCell>
        <mxCell id="lLFjMxr_NGgFAXdThUjX-7" style="edgeStyle=orthogonalEdgeStyle;rounded=0;orthogonalLoop=1;jettySize=auto;html=1;exitX=0.5;exitY=0;exitDx=0;exitDy=0;entryX=0.5;entryY=1;entryDx=0;entryDy=0;" edge="1" parent="1" source="lLFjMxr_NGgFAXdThUjX-6" target="lLFjMxr_NGgFAXdThUjX-2">
          <mxGeometry relative="1" as="geometry" />
        </mxCell>
        <mxCell id="lLFjMxr_NGgFAXdThUjX-8" value="请求顺序一致性&lt;br&gt;原子性&lt;div&gt;实时性&lt;/div&gt;" style="edgeLabel;html=1;align=center;verticalAlign=middle;resizable=0;points=[];" vertex="1" connectable="0" parent="lLFjMxr_NGgFAXdThUjX-7">
          <mxGeometry x="-0.0215" y="1" relative="1" as="geometry">
            <mxPoint as="offset" />
          </mxGeometry>
        </mxCell>
        <mxCell id="lLFjMxr_NGgFAXdThUjX-6" value="客户端" style="rounded=0;whiteSpace=wrap;html=1;" vertex="1" parent="1">
          <mxGeometry x="360" y="310" width="120" height="60" as="geometry" />
        </mxCell>
        <mxCell id="lLFjMxr_NGgFAXdThUjX-10" value="客户端" style="rounded=0;whiteSpace=wrap;html=1;" vertex="1" parent="1">
          <mxGeometry x="620" y="310" width="120" height="60" as="geometry" />
        </mxCell>
        <mxCell id="lLFjMxr_NGgFAXdThUjX-13" value="集群部署&lt;div&gt;保证高可用&lt;/div&gt;" style="text;html=1;align=center;verticalAlign=middle;resizable=0;points=[];autosize=1;strokeColor=none;fillColor=none;" vertex="1" parent="1">
          <mxGeometry x="380" y="50" width="80" height="40" as="geometry" />
        </mxCell>
      </root>
    </mxGraphModel>
  </diagram>
</mxfile>
